<svg height="512pt" viewBox="0 0 512 512" width="512pt" xmlns="http://www.w3.org/2000/svg"><path d="m256 0c-140.699219 0-256 115.300781-256 256s115.300781 256 256 256 256-115.300781 256-256-115.300781-256-256-256zm0 0" fill="#fdbf00"/><path d="m256 61c-107.402344 0-195 87.597656-195 195 0 107.398438 87.597656 195 195 195s195-87.601562 195-195c0-107.402344-87.597656-195-195-195zm0 0" fill="#ffda2d"/><path d="m512 256c0 140.699219-115.300781 256-256 256v-512c140.699219 0 256 115.300781 256 256zm0 0" fill="#ff9100"/><path d="m451 256c0 107.398438-87.597656 195-195 195v-390c107.402344 0 195 87.597656 195 195zm0 0" fill="#fdbf00"/><path d="m361 256c0-23.398438-8.101562-45-21.300781-62.699219l22.199219-22.199219-21-21-22.199219 22.199219c-17.699219-13.199219-39.300781-21.300781-62.699219-21.300781s-45 8.101562-62.699219 21.300781l-22.199219-22.199219-21 21 22.199219 22.199219c-13.199219 17.699219-21.300781 39.300781-21.300781 62.699219s8.101562 45 21.300781 62.699219l-22.199219 22.199219 21 21 22.199219-22.199219c17.699219 13.199219 39.300781 21.300781 62.699219 21.300781s45-8.101562 62.699219-21.300781l22.199219 22.199219 21-21-22.199219-22.199219c13.199219-17.699219 21.300781-39.300781 21.300781-62.699219zm-105 75c-41.351562 0-75-33.648438-75-75s33.648438-75 75-75 75 33.648438 75 75-33.648438 75-75 75zm0 0" fill="#ff9100"/><path d="m339.699219 318.699219 22.199219 22.199219-21 21-22.199219-22.199219c-17.699219 13.199219-39.300781 21.300781-62.699219 21.300781v-30c41.351562 0 75-33.648438 75-75s-33.648438-75-75-75v-30c23.398438 0 45 8.101562 62.699219 21.300781l22.199219-22.199219 21 21-22.199219 22.199219c13.199219 17.699219 21.300781 39.300781 21.300781 62.699219s-8.101562 45-21.300781 62.699219zm0 0" fill="#ff641a"/></svg>